<mxfile host="Electron" agent="Mozilla/5.0 (Windows NT 10.0; Win64; x64) AppleWebKit/537.36 (KHTML, like Gecko) draw.io/24.5.3 Chrome/124.0.6367.207 Electron/30.0.6 Safari/537.36" modified="2024-09-12T00:54:29.822Z" version="24.5.3" etag="rBYmoaccuOWg8EZ1kMm9" type="device">
  <diagram name="PÃ¡gina-1" id="_CnhyqVNlZv4DfUE5duI">
    <mxGraphModel dx="934" dy="927" grid="1" gridSize="10" guides="1" tooltips="1" connect="1" arrows="1" fold="1" page="1" pageScale="1" pageWidth="827" pageHeight="1169" math="0" shadow="0">
      <root>
        <mxCell id="0" />
        <mxCell id="1" parent="0" />
        <mxCell id="9ByP5ND6yJmhgZZ63msr-1" value="" style="rounded=1;whiteSpace=wrap;html=1;fontFamily=Helvetica;" parent="1" vertex="1">
          <mxGeometry x="150" y="120" width="650" height="570" as="geometry" />
        </mxCell>
        <mxCell id="9ByP5ND6yJmhgZZ63msr-2" style="rounded=0;orthogonalLoop=1;jettySize=auto;html=1;exitX=0.5;exitY=0.5;exitDx=0;exitDy=0;exitPerimeter=0;fontFamily=Helvetica;" parent="1" source="9ByP5ND6yJmhgZZ63msr-5" target="9ByP5ND6yJmhgZZ63msr-6" edge="1">
          <mxGeometry relative="1" as="geometry" />
        </mxCell>
        <mxCell id="9ByP5ND6yJmhgZZ63msr-4" style="rounded=0;orthogonalLoop=1;jettySize=auto;html=1;exitX=0.5;exitY=0.5;exitDx=0;exitDy=0;exitPerimeter=0;entryX=0;entryY=0.5;entryDx=0;entryDy=0;fontFamily=Helvetica;" parent="1" source="9ByP5ND6yJmhgZZ63msr-5" target="9ByP5ND6yJmhgZZ63msr-8" edge="1">
          <mxGeometry relative="1" as="geometry" />
        </mxCell>
        <mxCell id="9ByP5ND6yJmhgZZ63msr-5" value="Leitor" style="shape=umlActor;verticalLabelPosition=bottom;verticalAlign=top;html=1;outlineConnect=0;fontFamily=Helvetica;" parent="1" vertex="1">
          <mxGeometry x="20" y="350" width="30" height="60" as="geometry" />
        </mxCell>
        <mxCell id="9ByP5ND6yJmhgZZ63msr-6" value="Pesquisar Livro" style="ellipse;whiteSpace=wrap;html=1;fillColor=none;fontFamily=Helvetica;" parent="1" vertex="1">
          <mxGeometry x="220" y="470" width="120" height="80" as="geometry" />
        </mxCell>
        <mxCell id="9ByP5ND6yJmhgZZ63msr-7" value="Comentar Livro" style="ellipse;whiteSpace=wrap;html=1;fontFamily=Helvetica;fillColor=#76608a;strokeColor=#432D57;fontColor=#ffffff;" parent="1" vertex="1">
          <mxGeometry x="440" y="350" width="120" height="80" as="geometry" />
        </mxCell>
        <mxCell id="9ByP5ND6yJmhgZZ63msr-8" value="Cadastrar Leitor" style="ellipse;whiteSpace=wrap;html=1;fontFamily=Helvetica;" parent="1" vertex="1">
          <mxGeometry x="220" y="190" width="120" height="80" as="geometry" />
        </mxCell>
        <mxCell id="9ByP5ND6yJmhgZZ63msr-10" value="Manter livro" style="ellipse;whiteSpace=wrap;html=1;fontFamily=Helvetica;" parent="1" vertex="1">
          <mxGeometry x="580" y="240" width="120" height="80" as="geometry" />
        </mxCell>
        <mxCell id="9ByP5ND6yJmhgZZ63msr-13" value="Banco de livros&lt;div&gt;&lt;br&gt;&lt;/div&gt;" style="shape=umlActor;verticalLabelPosition=bottom;verticalAlign=top;html=1;fontFamily=Helvetica;" parent="1" vertex="1">
          <mxGeometry x="620" y="20" width="30" height="60" as="geometry" />
        </mxCell>
        <mxCell id="9ByP5ND6yJmhgZZ63msr-18" value="Bibliopedia" style="text;html=1;align=center;verticalAlign=middle;resizable=0;points=[];autosize=1;strokeColor=none;fillColor=none;fontSize=23;fontFamily=Helvetica;" parent="1" vertex="1">
          <mxGeometry x="360" y="80" width="140" height="40" as="geometry" />
        </mxCell>
        <mxCell id="9ByP5ND6yJmhgZZ63msr-21" value="Avaliar Livro" style="ellipse;whiteSpace=wrap;html=1;fontFamily=Helvetica;fillColor=#76608a;strokeColor=#432D57;fontColor=#ffffff;" parent="1" vertex="1">
          <mxGeometry x="440" y="470" width="120" height="80" as="geometry" />
        </mxCell>
        <mxCell id="9ByP5ND6yJmhgZZ63msr-22" value="Ranquear Livro" style="ellipse;whiteSpace=wrap;html=1;fontFamily=Helvetica;" parent="1" vertex="1">
          <mxGeometry x="650" y="470" width="120" height="80" as="geometry" />
        </mxCell>
        <mxCell id="9ByP5ND6yJmhgZZ63msr-25" value="Favoritar&amp;nbsp; livro" style="ellipse;whiteSpace=wrap;html=1;fontFamily=Helvetica;fillColor=#76608a;strokeColor=#432D57;fontColor=#ffffff;" parent="1" vertex="1">
          <mxGeometry x="450" y="584" width="120" height="80" as="geometry" />
        </mxCell>
        <mxCell id="KHWY6JMv0OJ232LxpA-G-13" style="rounded=0;sketch=1;hachureGap=4;jiggle=2;curveFitting=1;orthogonalLoop=1;jettySize=auto;html=1;exitX=0.5;exitY=0;exitDx=0;exitDy=0;entryX=0.5;entryY=0.5;entryDx=0;entryDy=0;entryPerimeter=0;fontFamily=Helvetica;" edge="1" parent="1" source="9ByP5ND6yJmhgZZ63msr-10" target="9ByP5ND6yJmhgZZ63msr-13">
          <mxGeometry relative="1" as="geometry" />
        </mxCell>
        <mxCell id="KHWY6JMv0OJ232LxpA-G-18" value="&amp;lt;&amp;lt;extend&amp;gt;&amp;gt;" style="edgeStyle=none;html=1;startArrow=open;endArrow=none;startSize=12;verticalAlign=bottom;dashed=1;labelBackgroundColor=none;rounded=0;sketch=1;hachureGap=4;jiggle=2;curveFitting=1;fontFamily=Helvetica;exitX=1;exitY=0.5;exitDx=0;exitDy=0;" edge="1" parent="1" source="9ByP5ND6yJmhgZZ63msr-6" target="9ByP5ND6yJmhgZZ63msr-7">
          <mxGeometry width="160" relative="1" as="geometry">
            <mxPoint x="320" y="340" as="sourcePoint" />
            <mxPoint x="480" y="340" as="targetPoint" />
          </mxGeometry>
        </mxCell>
        <mxCell id="KHWY6JMv0OJ232LxpA-G-19" value="&amp;lt;&amp;lt;extend&amp;gt;&amp;gt;" style="edgeStyle=none;html=1;startArrow=open;endArrow=none;startSize=12;verticalAlign=bottom;dashed=1;labelBackgroundColor=none;rounded=0;sketch=1;hachureGap=4;jiggle=2;curveFitting=1;fontFamily=Helvetica;exitX=1;exitY=0.5;exitDx=0;exitDy=0;entryX=0.017;entryY=0.425;entryDx=0;entryDy=0;entryPerimeter=0;" edge="1" parent="1" source="9ByP5ND6yJmhgZZ63msr-6" target="9ByP5ND6yJmhgZZ63msr-21">
          <mxGeometry width="160" relative="1" as="geometry">
            <mxPoint x="320" y="340" as="sourcePoint" />
            <mxPoint x="480" y="340" as="targetPoint" />
          </mxGeometry>
        </mxCell>
        <mxCell id="KHWY6JMv0OJ232LxpA-G-20" value="&amp;lt;&amp;lt;extend&amp;gt;&amp;gt;" style="edgeStyle=none;html=1;startArrow=open;endArrow=none;startSize=12;verticalAlign=bottom;dashed=1;labelBackgroundColor=none;rounded=0;sketch=1;hachureGap=4;jiggle=2;curveFitting=1;fontFamily=Helvetica;exitX=1;exitY=0.5;exitDx=0;exitDy=0;entryX=0;entryY=0;entryDx=0;entryDy=0;" edge="1" parent="1" source="9ByP5ND6yJmhgZZ63msr-6" target="9ByP5ND6yJmhgZZ63msr-25">
          <mxGeometry width="160" relative="1" as="geometry">
            <mxPoint x="320" y="340" as="sourcePoint" />
            <mxPoint x="480" y="340" as="targetPoint" />
          </mxGeometry>
        </mxCell>
        <mxCell id="KHWY6JMv0OJ232LxpA-G-22" value="&amp;lt;&amp;lt;include&amp;gt;&amp;gt;" style="edgeStyle=none;html=1;endArrow=open;verticalAlign=bottom;dashed=1;labelBackgroundColor=none;rounded=0;sketch=1;hachureGap=4;jiggle=2;curveFitting=1;fontFamily=Helvetica;entryX=0;entryY=0.5;entryDx=0;entryDy=0;exitX=1;exitY=0.5;exitDx=0;exitDy=0;" edge="1" parent="1" source="9ByP5ND6yJmhgZZ63msr-21" target="9ByP5ND6yJmhgZZ63msr-22">
          <mxGeometry width="160" relative="1" as="geometry">
            <mxPoint x="320" y="340" as="sourcePoint" />
            <mxPoint x="480" y="340" as="targetPoint" />
          </mxGeometry>
        </mxCell>
        <mxCell id="KHWY6JMv0OJ232LxpA-G-23" value="Filtrar pela popularidade." style="ellipse;whiteSpace=wrap;html=1;sketch=1;hachureGap=4;jiggle=2;curveFitting=1;fontFamily=Helvetica;" vertex="1" parent="1">
          <mxGeometry x="210" y="320" width="120" height="80" as="geometry" />
        </mxCell>
        <mxCell id="KHWY6JMv0OJ232LxpA-G-24" style="rounded=0;sketch=1;hachureGap=4;jiggle=2;curveFitting=1;orthogonalLoop=1;jettySize=auto;html=1;exitX=0.5;exitY=0.5;exitDx=0;exitDy=0;exitPerimeter=0;entryX=-0.004;entryY=0.611;entryDx=0;entryDy=0;entryPerimeter=0;fontFamily=Helvetica;" edge="1" parent="1" source="9ByP5ND6yJmhgZZ63msr-5" target="KHWY6JMv0OJ232LxpA-G-23">
          <mxGeometry relative="1" as="geometry" />
        </mxCell>
      </root>
    </mxGraphModel>
  </diagram>
</mxfile>
